<svg id="visual" viewBox="0 0 960 540" width="1160" height="8140" xmlns="http://www.w3.org/2000/svg" xmlns:xlink="http://www.w3.org/1999/xlink" version="1.1"><rect x="0" y="0" width="960" height="540" fill="#8B5CF6"></rect><g transform="translate(493.79608550239004 243.9012329065635)"><path d="M122.8 -154.7C159.9 -115.2 191.2 -77.2 214.4 -25.9C237.6 25.3 252.6 89.9 230.9 138.9C209.3 187.9 151 221.3 87.2 248.4C23.3 275.5 -46.1 296.3 -97 274.4C-148 252.4 -180.5 187.7 -214 125.6C-247.4 63.4 -281.8 3.8 -264.3 -38.2C-246.9 -80.3 -177.7 -104.8 -125 -141.5C-72.3 -178.2 -36.2 -227.1 3.3 -231.1C42.9 -235.1 85.7 -194.1 122.8 -154.7" fill="#f3eff0"></path></g></svg>