<?xml version="1.0" standalone="no"?>
<svg xmlns:xlink="http://www.w3.org/1999/xlink" id="wave" style="transform:rotate(180deg); transition: 0.3s" viewBox="0 0 263 435" version="1.1" xmlns="http://www.w3.org/2000/svg"><defs><linearGradient id="sw-gradient-0" x1="0" x2="0" y1="1" y2="0"><stop stop-color="rgba(99, 102, 241, 1)" offset="0%"/><stop stop-color="rgba(99, 102, 241, 1)" offset="100%"/></linearGradient></defs><path style="transform:translate(0, 0px); opacity:1" fill="url(#sw-gradient-0)" d="M0,0L34.3,40.5C68.6,81,137,162,206,162C274.3,162,343,81,411,72C480,63,549,126,617,139.5C685.7,153,754,117,823,85.5C891.4,54,960,27,1029,54C1097.1,81,1166,162,1234,162C1302.9,162,1371,81,1440,76.5C1508.6,72,1577,144,1646,153C1714.3,162,1783,108,1851,81C1920,54,1989,54,2057,63C2125.7,72,2194,90,2263,121.5C2331.4,153,2400,198,2469,193.5C2537.1,189,2606,135,2674,117C2742.9,99,2811,117,2880,103.5C2948.6,90,3017,45,3086,49.5C3154.3,54,3223,108,3291,148.5C3360,189,3429,216,3497,202.5C3565.7,189,3634,135,3703,99C3771.4,63,3840,45,3909,67.5C3977.1,90,4046,153,4114,157.5C4182.9,162,4251,108,4320,72C4388.6,36,4457,18,4526,45C4594.3,72,4663,144,4731,148.5C4800,153,4869,90,4903,58.5L4937.1,27L4937.1,270L4902.9,270C4868.6,270,4800,270,4731,270C4662.9,270,4594,270,4526,270C4457.1,270,4389,270,4320,270C4251.4,270,4183,270,4114,270C4045.7,270,3977,270,3909,270C3840,270,3771,270,3703,270C3634.3,270,3566,270,3497,270C3428.6,270,3360,270,3291,270C3222.9,270,3154,270,3086,270C3017.1,270,2949,270,2880,270C2811.4,270,2743,270,2674,270C2605.7,270,2537,270,2469,270C2400,270,2331,270,2263,270C2194.3,270,2126,270,2057,270C1988.6,270,1920,270,1851,270C1782.9,270,1714,270,1646,270C1577.1,270,1509,270,1440,270C1371.4,270,1303,270,1234,270C1165.7,270,1097,270,1029,270C960,270,891,270,823,270C754.3,270,686,270,617,270C548.6,270,480,270,411,270C342.9,270,274,270,206,270C137.1,270,69,270,34,270L0,270Z"/></svg>